<?xml version="1.0" encoding="UTF-8" standalone="no"?>
<!DOCTYPE svg PUBLIC "-//W3C//DTD SVG 1.1//EN"
 "http://www.w3.org/Graphics/SVG/1.1/DTD/svg11.dtd">
<!-- Generated by graphviz version 8.0.5 (20230430.1635)
 -->
<!-- Title: main Pages: 1 -->
<svg width="457pt" height="323pt"
 viewBox="0.00 0.00 457.00 323.25" xmlns="http://www.w3.org/2000/svg" xmlns:xlink="http://www.w3.org/1999/xlink">
<g id="graph0" class="graph" transform="scale(1 1) rotate(0) translate(4 319.25)">
<title>main</title>
<!-- Node1 -->
<g id="node1" class="node">
<title>Node1</title>
<g id="a_node1"><a xlink:title="Main function.">
<polygon fill="#999999" stroke="#666666" points="37,-167.25 0,-167.25 0,-148 37,-148 37,-167.25"/>
<text text-anchor="middle" x="18.5" y="-153.75" font-family="Helvetica,sans-Serif" font-size="10.00">main</text>
</a>
</g>
</g>
<!-- Node2 -->
<g id="node2" class="node">
<title>Node2</title>
<g id="a_node2"><a xlink:href="../../dc/d82/area_8cpp.html#aa8dca7b867074164d5f45b0f3851269d" target="_top" xlink:title="Self&#45;test implementations.">
<polygon fill="white" stroke="#666666" points="105.5,-167.25 73,-167.25 73,-148 105.5,-148 105.5,-167.25"/>
<text text-anchor="middle" x="89.25" y="-153.75" font-family="Helvetica,sans-Serif" font-size="10.00">test</text>
</a>
</g>
</g>
<!-- Node1&#45;&gt;Node2 -->
<g id="edge1" class="edge">
<title>Node1&#45;&gt;Node2</title>
<path fill="none" stroke="#63b8ff" d="M37.2,-157.62C44.67,-157.62 53.52,-157.62 61.73,-157.62"/>
<polygon fill="#63b8ff" stroke="#63b8ff" points="61.71,-161.13 71.71,-157.62 61.71,-154.13 61.71,-161.13"/>
</g>
<!-- Node3 -->
<g id="node3" class="node">
<title>Node3</title>
<g id="a_node3"><a xlink:href="../../dd/d47/namespacemath.html#a40e36c67da78d2131408c57ee091ad75" target="_top" xlink:title="area of a circle (pi">
<polygon fill="white" stroke="#666666" points="256.5,-315.25 165.5,-315.25 165.5,-296 256.5,-296 256.5,-315.25"/>
<text text-anchor="middle" x="211" y="-301.75" font-family="Helvetica,sans-Serif" font-size="10.00">math::circle_area</text>
</a>
</g>
</g>
<!-- Node2&#45;&gt;Node3 -->
<g id="edge2" class="edge">
<title>Node2&#45;&gt;Node3</title>
<path fill="none" stroke="#63b8ff" d="M91.15,-167.47C93.92,-191.72 104.49,-254.76 141.5,-287.62 145.59,-291.26 150.33,-294.17 155.36,-296.5"/>
<polygon fill="#63b8ff" stroke="#63b8ff" points="153.73,-300.01 164.32,-300.32 156.24,-293.47 153.73,-300.01"/>
</g>
<!-- Node4 -->
<g id="node4" class="node">
<title>Node4</title>
<g id="a_node4"><a xlink:href="../../dd/d47/namespacemath.html#abc46c784a297fc1d2eb8b33a327fba4c" target="_top" xlink:title="surface area of a cube ( 6 * (l">
<polygon fill="white" stroke="#666666" points="274.12,-278.25 147.88,-278.25 147.88,-259 274.12,-259 274.12,-278.25"/>
<text text-anchor="middle" x="211" y="-264.75" font-family="Helvetica,sans-Serif" font-size="10.00">math::cube_surface_area</text>
</a>
</g>
</g>
<!-- Node2&#45;&gt;Node4 -->
<g id="edge3" class="edge">
<title>Node2&#45;&gt;Node4</title>
<path fill="none" stroke="#63b8ff" d="M92.85,-167.48C98.4,-186.57 113.29,-228.64 141.5,-250.62 142.77,-251.62 144.1,-252.55 145.46,-253.44"/>
<polygon fill="#63b8ff" stroke="#63b8ff" points="143.5,-256.9 153.97,-258.57 146.83,-250.74 143.5,-256.9"/>
</g>
<!-- Node5 -->
<g id="node5" class="node">
<title>Node5</title>
<g id="a_node5"><a xlink:href="../../dd/d47/namespacemath.html#ac5803413618fcfb922cb32c6db0fc864" target="_top" xlink:title="surface area of a cylinder (2 * pi * r * h + 2 * pi * r^2)">
<polygon fill="white" stroke="#666666" points="280.5,-241.25 141.5,-241.25 141.5,-222 280.5,-222 280.5,-241.25"/>
<text text-anchor="middle" x="211" y="-227.75" font-family="Helvetica,sans-Serif" font-size="10.00">math::cylinder_surface_area</text>
</a>
</g>
</g>
<!-- Node2&#45;&gt;Node5 -->
<g id="edge4" class="edge">
<title>Node2&#45;&gt;Node5</title>
<path fill="none" stroke="#63b8ff" d="M96.61,-167.53C105.25,-180.16 121.87,-201.77 141.5,-213.62 143.72,-214.97 146.04,-216.21 148.43,-217.36"/>
<polygon fill="#63b8ff" stroke="#63b8ff" points="146.97,-220.96 157.54,-221.59 149.67,-214.5 146.97,-220.96"/>
</g>
<!-- Node8 -->
<g id="node8" class="node">
<title>Node8</title>
<g id="a_node8"><a target="_blank" xlink:href="http://en.cppreference.com/w/cpp/io/manip/endl.html#" xlink:title=" ">
<polygon fill="white" stroke="#666666" points="237.75,-204.25 184.25,-204.25 184.25,-185 237.75,-185 237.75,-204.25"/>
<text text-anchor="middle" x="211" y="-190.75" font-family="Helvetica,sans-Serif" font-size="10.00">std::endl</text>
</a>
</g>
</g>
<!-- Node2&#45;&gt;Node8 -->
<g id="edge8" class="edge">
<title>Node2&#45;&gt;Node8</title>
<path fill="none" stroke="#63b8ff" d="M105.81,-163.85C115.9,-167.77 129.37,-172.79 141.5,-176.62 151.77,-179.87 163.03,-183 173.4,-185.72"/>
<polygon fill="#63b8ff" stroke="#63b8ff" points="172.25,-189.29 182.81,-188.38 173.99,-182.51 172.25,-189.29"/>
</g>
<!-- Node9 -->
<g id="node9" class="node">
<title>Node9</title>
<g id="a_node9"><a xlink:href="../../dd/d47/namespacemath.html#a5de184925e68658f15415dd53954df4f" target="_top" xlink:title="area of a parallelogram (b * h)">
<polygon fill="white" stroke="#666666" points="273.75,-167.25 148.25,-167.25 148.25,-148 273.75,-148 273.75,-167.25"/>
<text text-anchor="middle" x="211" y="-153.75" font-family="Helvetica,sans-Serif" font-size="10.00">math::parallelogram_area</text>
</a>
</g>
</g>
<!-- Node2&#45;&gt;Node9 -->
<g id="edge9" class="edge">
<title>Node2&#45;&gt;Node9</title>
<path fill="none" stroke="#63b8ff" d="M105.91,-157.62C114.3,-157.62 125.32,-157.62 137.04,-157.62"/>
<polygon fill="#63b8ff" stroke="#63b8ff" points="136.95,-161.13 146.95,-157.62 136.95,-154.13 136.95,-161.13"/>
</g>
<!-- Node10 -->
<g id="node10" class="node">
<title>Node10</title>
<g id="a_node10"><a xlink:href="../../dd/d47/namespacemath.html#ab31d141f7c5b551746b1eee0eb4dedca" target="_top" xlink:title="area of a rectangle (l * w)">
<polygon fill="white" stroke="#666666" points="253.12,-130.25 168.88,-130.25 168.88,-111 253.12,-111 253.12,-130.25"/>
<text text-anchor="middle" x="211" y="-116.75" font-family="Helvetica,sans-Serif" font-size="10.00">math::rect_area</text>
</a>
</g>
</g>
<!-- Node2&#45;&gt;Node10 -->
<g id="edge11" class="edge">
<title>Node2&#45;&gt;Node10</title>
<path fill="none" stroke="#63b8ff" d="M105.81,-151.4C115.9,-147.48 129.37,-142.46 141.5,-138.62 147,-136.89 152.78,-135.18 158.55,-133.56"/>
<polygon fill="#63b8ff" stroke="#63b8ff" points="159.16,-136.75 167.88,-130.73 157.31,-130 159.16,-136.75"/>
</g>
<!-- Node11 -->
<g id="node11" class="node">
<title>Node11</title>
<g id="a_node11"><a xlink:href="../../dd/d47/namespacemath.html#ab7f29862d30df351c317eedd60a0c656" target="_top" xlink:title="surface area of a sphere ( 4 * pi * r^2)">
<polygon fill="white" stroke="#666666" points="278.25,-93.25 143.75,-93.25 143.75,-74 278.25,-74 278.25,-93.25"/>
<text text-anchor="middle" x="211" y="-79.75" font-family="Helvetica,sans-Serif" font-size="10.00">math::sphere_surface_area</text>
</a>
</g>
</g>
<!-- Node2&#45;&gt;Node11 -->
<g id="edge12" class="edge">
<title>Node2&#45;&gt;Node11</title>
<path fill="none" stroke="#63b8ff" d="M96.61,-147.72C105.25,-135.09 121.87,-113.48 141.5,-101.62 143.72,-100.28 146.04,-99.04 148.43,-97.89"/>
<polygon fill="#63b8ff" stroke="#63b8ff" points="149.67,-100.75 157.54,-93.66 146.97,-94.29 149.67,-100.75"/>
</g>
<!-- Node12 -->
<g id="node12" class="node">
<title>Node12</title>
<g id="a_node12"><a xlink:href="../../dd/d47/namespacemath.html#a971ce57e368f2f631cf1f4ff3f864049" target="_top" xlink:title="area of a square (l * l)">
<polygon fill="white" stroke="#666666" points="259.5,-56.25 162.5,-56.25 162.5,-37 259.5,-37 259.5,-56.25"/>
<text text-anchor="middle" x="211" y="-42.75" font-family="Helvetica,sans-Serif" font-size="10.00">math::square_area</text>
</a>
</g>
</g>
<!-- Node2&#45;&gt;Node12 -->
<g id="edge13" class="edge">
<title>Node2&#45;&gt;Node12</title>
<path fill="none" stroke="#63b8ff" d="M92.85,-147.77C98.4,-128.68 113.29,-86.61 141.5,-64.62 144.84,-62.02 148.52,-59.79 152.4,-57.88"/>
<polygon fill="#63b8ff" stroke="#63b8ff" points="153.42,-60.83 161.32,-53.77 150.74,-54.37 153.42,-60.83"/>
</g>
<!-- Node13 -->
<g id="node13" class="node">
<title>Node13</title>
<g id="a_node13"><a xlink:href="../../dd/d47/namespacemath.html#ab3b920cc56442abd92279ba23b50f4dc" target="_top" xlink:title="area of a triangle (b * h / 2)">
<polygon fill="white" stroke="#666666" points="260.62,-19.25 161.38,-19.25 161.38,0 260.62,0 260.62,-19.25"/>
<text text-anchor="middle" x="211" y="-5.75" font-family="Helvetica,sans-Serif" font-size="10.00">math::triangle_area</text>
</a>
</g>
</g>
<!-- Node2&#45;&gt;Node13 -->
<g id="edge14" class="edge">
<title>Node2&#45;&gt;Node13</title>
<path fill="none" stroke="#63b8ff" d="M91.15,-147.78C93.92,-123.53 104.49,-60.49 141.5,-27.62 144.48,-24.98 147.8,-22.71 151.33,-20.78"/>
<polygon fill="#63b8ff" stroke="#63b8ff" points="152.4,-23.68 160.08,-16.38 149.52,-17.3 152.4,-23.68"/>
</g>
<!-- Node6 -->
<g id="node6" class="node">
<title>Node6</title>
<g id="a_node6"><a xlink:href="../../d8/dee/avltree_8cpp.html#ae4a66d8b0c2b0d626aea45977e358c83" target="_top" xlink:title=" ">
<polygon fill="white" stroke="#666666" points="358.75,-167.25 316.5,-167.25 316.5,-148 358.75,-148 358.75,-167.25"/>
<text text-anchor="middle" x="337.62" y="-153.75" font-family="Helvetica,sans-Serif" font-size="10.00">height</text>
</a>
</g>
</g>
<!-- Node5&#45;&gt;Node6 -->
<g id="edge5" class="edge">
<title>Node5&#45;&gt;Node6</title>
<path fill="none" stroke="#63b8ff" d="M262.6,-221.61C268.83,-219.44 274.95,-216.81 280.5,-213.62 297.22,-204.04 312.44,-188.19 322.8,-175.79"/>
<polygon fill="#63b8ff" stroke="#63b8ff" points="325.91,-178.51 329.43,-168.51 320.45,-174.13 325.91,-178.51"/>
</g>
<!-- Node6&#45;&gt;Node6 -->
<g id="edge6" class="edge">
<title>Node6&#45;&gt;Node6</title>
<path fill="none" stroke="#63b8ff" d="M324.44,-167.54C318.42,-176.15 322.82,-185.25 337.62,-185.25 345.96,-185.25 350.99,-182.37 352.73,-178.32"/>
<polygon fill="#63b8ff" stroke="#63b8ff" points="356.01,-177.77 350.81,-168.54 349.12,-179 356.01,-177.77"/>
</g>
<!-- Node7 -->
<g id="node7" class="node">
<title>Node7</title>
<g id="a_node7"><a target="_blank" xlink:href="http://en.cppreference.com/w/cpp/algorithm/max.html#" xlink:title=" ">
<polygon fill="white" stroke="#666666" points="449,-167.25 394.75,-167.25 394.75,-148 449,-148 449,-167.25"/>
<text text-anchor="middle" x="421.88" y="-153.75" font-family="Helvetica,sans-Serif" font-size="10.00">std::max</text>
</a>
</g>
</g>
<!-- Node6&#45;&gt;Node7 -->
<g id="edge7" class="edge">
<title>Node6&#45;&gt;Node7</title>
<path fill="none" stroke="#63b8ff" d="M358.96,-157.62C366.37,-157.62 375,-157.62 383.42,-157.62"/>
<polygon fill="#63b8ff" stroke="#63b8ff" points="383.26,-161.13 393.26,-157.62 383.26,-154.13 383.26,-161.13"/>
</g>
<!-- Node9&#45;&gt;Node6 -->
<g id="edge10" class="edge">
<title>Node9&#45;&gt;Node6</title>
<path fill="none" stroke="#63b8ff" d="M273.95,-157.62C284.8,-157.62 295.68,-157.62 305.25,-157.62"/>
<polygon fill="#63b8ff" stroke="#63b8ff" points="305.18,-161.13 315.18,-157.62 305.18,-154.13 305.18,-161.13"/>
</g>
<!-- Node13&#45;&gt;Node6 -->
<g id="edge15" class="edge">
<title>Node13&#45;&gt;Node6</title>
<path fill="none" stroke="#63b8ff" d="M260.79,-16.53C267.95,-19.15 274.81,-22.74 280.5,-27.62 313.77,-56.23 327.93,-108.15 333.46,-136.96"/>
<polygon fill="#63b8ff" stroke="#63b8ff" points="330.17,-137.5 335.33,-146.76 337.07,-136.31 330.17,-137.5"/>
</g>
</g>
</svg>
