<?xml version="1.0" encoding="UTF-8" standalone="no"?>
<!DOCTYPE svg PUBLIC "-//W3C//DTD SVG 1.1//EN"
 "http://www.w3.org/Graphics/SVG/1.1/DTD/svg11.dtd">
<!-- Generated by graphviz version 8.0.5 (20230430.1635)
 -->
<!-- Title: range_queries/sparse_table.cpp Pages: 1 -->
<svg width="263pt" height="94pt"
 viewBox="0.00 0.00 263.38 93.75" xmlns="http://www.w3.org/2000/svg" xmlns:xlink="http://www.w3.org/1999/xlink">
<g id="graph0" class="graph" transform="scale(1 1) rotate(0) translate(4 89.75)">
<title>range_queries/sparse_table.cpp</title>
<!-- Node1 -->
<g id="node1" class="node">
<title>Node1</title>
<g id="a_node1"><a xlink:title="Implementation of Sparse Table data structure.">
<polygon fill="#999999" stroke="#666666" points="174,-85.75 65,-85.75 65,-55.25 174,-55.25 174,-85.75"/>
<text text-anchor="start" x="73" y="-72.25" font-family="Helvetica,sans-Serif" font-size="10.00">range_queries/sparse</text>
<text text-anchor="middle" x="119.5" y="-61" font-family="Helvetica,sans-Serif" font-size="10.00">_table.cpp</text>
</a>
</g>
</g>
<!-- Node2 -->
<g id="node2" class="node">
<title>Node2</title>
<g id="a_node2"><a xlink:title=" ">
<polygon fill="#e0e0e0" stroke="#999999" points="43,-19.25 0,-19.25 0,0 43,0 43,-19.25"/>
<text text-anchor="middle" x="21.5" y="-5.75" font-family="Helvetica,sans-Serif" font-size="10.00">vector</text>
</a>
</g>
</g>
<!-- Node1&#45;&gt;Node2 -->
<g id="edge1" class="edge">
<title>Node1&#45;&gt;Node2</title>
<path fill="none" stroke="#63b8ff" d="M95.02,-54.8C79.96,-45.74 60.72,-34.19 45.7,-25.16"/>
<polygon fill="#63b8ff" stroke="#63b8ff" points="47.9,-21.8 37.53,-19.65 44.3,-27.8 47.9,-21.8"/>
</g>
<!-- Node3 -->
<g id="node3" class="node">
<title>Node3</title>
<g id="a_node3"><a xlink:title=" ">
<polygon fill="#e0e0e0" stroke="#999999" points="109.62,-19.25 61.38,-19.25 61.38,0 109.62,0 109.62,-19.25"/>
<text text-anchor="middle" x="85.5" y="-5.75" font-family="Helvetica,sans-Serif" font-size="10.00">cassert</text>
</a>
</g>
</g>
<!-- Node1&#45;&gt;Node3 -->
<g id="edge2" class="edge">
<title>Node1&#45;&gt;Node3</title>
<path fill="none" stroke="#63b8ff" d="M111.1,-54.95C106.57,-47.1 100.93,-37.35 96.1,-28.99"/>
<polygon fill="#63b8ff" stroke="#63b8ff" points="98.77,-27.61 90.74,-20.7 92.71,-31.11 98.77,-27.61"/>
</g>
<!-- Node4 -->
<g id="node4" class="node">
<title>Node4</title>
<g id="a_node4"><a xlink:title=" ">
<polygon fill="#e0e0e0" stroke="#999999" points="181.25,-19.25 127.75,-19.25 127.75,0 181.25,0 181.25,-19.25"/>
<text text-anchor="middle" x="154.5" y="-5.75" font-family="Helvetica,sans-Serif" font-size="10.00">iostream</text>
</a>
</g>
</g>
<!-- Node1&#45;&gt;Node4 -->
<g id="edge3" class="edge">
<title>Node1&#45;&gt;Node4</title>
<path fill="none" stroke="#63b8ff" d="M128.15,-54.95C132.81,-47.1 138.61,-37.35 143.59,-28.99"/>
<polygon fill="#63b8ff" stroke="#63b8ff" points="147,-31.09 149.1,-20.7 140.99,-27.51 147,-31.09"/>
</g>
<!-- Node5 -->
<g id="node5" class="node">
<title>Node5</title>
<g id="a_node5"><a xlink:title=" ">
<polygon fill="#e0e0e0" stroke="#999999" points="255.38,-19.25 199.62,-19.25 199.62,0 255.38,0 255.38,-19.25"/>
<text text-anchor="middle" x="227.5" y="-5.75" font-family="Helvetica,sans-Serif" font-size="10.00">algorithm</text>
</a>
</g>
</g>
<!-- Node1&#45;&gt;Node5 -->
<g id="edge4" class="edge">
<title>Node1&#45;&gt;Node5</title>
<path fill="none" stroke="#63b8ff" d="M146.47,-54.8C163.24,-45.66 184.68,-33.97 201.3,-24.91"/>
<polygon fill="#63b8ff" stroke="#63b8ff" points="202.83,-27.51 209.94,-19.65 199.48,-21.37 202.83,-27.51"/>
</g>
</g>
</svg>
