<?xml version="1.0" encoding="UTF-8" standalone="no"?>
<!DOCTYPE svg PUBLIC "-//W3C//DTD SVG 1.1//EN"
 "http://www.w3.org/Graphics/SVG/1.1/DTD/svg11.dtd">
<!-- Generated by graphviz version 8.0.5 (20230430.1635)
 -->
<!-- Title: node&lt; Kind &gt; Pages: 1 -->
<svg width="128pt" height="198pt"
 viewBox="0.00 0.00 127.50 198.25" xmlns="http://www.w3.org/2000/svg" xmlns:xlink="http://www.w3.org/1999/xlink">
<g id="graph0" class="graph" transform="scale(1 1) rotate(0) translate(4 194.25)">
<title>node&lt; Kind &gt;</title>
<!-- Node1 -->
<g id="node1" class="node">
<title>Node1</title>
<g id="a_node1"><a xlink:title=" ">
<polygon fill="#999999" stroke="#666666" points="74.5,-19.25 0,-19.25 0,0 74.5,0 74.5,-19.25"/>
<text text-anchor="middle" x="37.25" y="-5.75" font-family="Helvetica,sans-Serif" font-size="10.00">node&lt; Kind &gt;</text>
</a>
</g>
</g>
<!-- Node2 -->
<g id="node2" class="node">
<title>Node2</title>
<g id="a_node2"><a xlink:href="../../d5/da1/structnode.html" target="_top" xlink:title=" ">
<polygon fill="white" stroke="#666666" points="74.5,-166.12 0,-166.12 0,-146.88 74.5,-146.88 74.5,-166.12"/>
<text text-anchor="middle" x="37.25" y="-152.62" font-family="Helvetica,sans-Serif" font-size="10.00">node&lt; Kind &gt;</text>
</a>
</g>
</g>
<!-- Node2&#45;&gt;Node1 -->
<g id="edge1" class="edge">
<title>Node2&#45;&gt;Node1</title>
<path fill="none" stroke="#9a32cd" stroke-dasharray="5,2" d="M37.25,-135.44C37.25,-103.58 37.25,-42.65 37.25,-19.68"/>
<polygon fill="#9a32cd" stroke="#9a32cd" points="33.75,-135.44 37.25,-145.44 40.75,-135.44 33.75,-135.44"/>
<text text-anchor="middle" x="50.75" y="-95.25" font-family="Helvetica,sans-Serif" font-size="10.00"> left</text>
<text text-anchor="middle" x="50.75" y="-84" font-family="Helvetica,sans-Serif" font-size="10.00">link</text>
<text text-anchor="middle" x="50.75" y="-72.75" font-family="Helvetica,sans-Serif" font-size="10.00">next</text>
<text text-anchor="middle" x="50.75" y="-61.5" font-family="Helvetica,sans-Serif" font-size="10.00">parent</text>
<text text-anchor="middle" x="50.75" y="-50.25" font-family="Helvetica,sans-Serif" font-size="10.00">prev</text>
<text text-anchor="middle" x="50.75" y="-39" font-family="Helvetica,sans-Serif" font-size="10.00">right</text>
</g>
<!-- Node2&#45;&gt;Node2 -->
<g id="edge2" class="edge">
<title>Node2&#45;&gt;Node2</title>
<path fill="none" stroke="#9a32cd" stroke-dasharray="5,2" d="M59.78,-170.76C76.14,-175.5 92.5,-170.74 92.5,-156.5 92.5,-139.3 68.65,-135.94 49.74,-146.42"/>
<polygon fill="#9a32cd" stroke="#9a32cd" points="61.31,-167.19 50.74,-166.58 58.63,-173.65 61.31,-167.19"/>
<text text-anchor="middle" x="106" y="-180.75" font-family="Helvetica,sans-Serif" font-size="10.00"> left</text>
<text text-anchor="middle" x="106" y="-169.5" font-family="Helvetica,sans-Serif" font-size="10.00">link</text>
<text text-anchor="middle" x="106" y="-158.25" font-family="Helvetica,sans-Serif" font-size="10.00">next</text>
<text text-anchor="middle" x="106" y="-147" font-family="Helvetica,sans-Serif" font-size="10.00">parent</text>
<text text-anchor="middle" x="106" y="-135.75" font-family="Helvetica,sans-Serif" font-size="10.00">prev</text>
<text text-anchor="middle" x="106" y="-124.5" font-family="Helvetica,sans-Serif" font-size="10.00">right</text>
</g>
</g>
</svg>
