<?xml version="1.0" encoding="UTF-8" standalone="no"?>
<!DOCTYPE svg PUBLIC "-//W3C//DTD SVG 1.1//EN"
 "http://www.w3.org/Graphics/SVG/1.1/DTD/svg11.dtd">
<!-- Generated by graphviz version 8.0.5 (20230430.1635)
 -->
<!-- Title: stack::pop Pages: 1 -->
<svg width="213pt" height="64pt"
 viewBox="0.00 0.00 213.25 64.25" xmlns="http://www.w3.org/2000/svg" xmlns:xlink="http://www.w3.org/1999/xlink">
<g id="graph0" class="graph" transform="scale(1 1) rotate(0) translate(4 60.25)">
<title>stack::pop</title>
<!-- Node1 -->
<g id="node1" class="node">
<title>Node1</title>
<g id="a_node1"><a xlink:title=" ">
<polygon fill="#999999" stroke="#666666" points="61.75,-37.25 0,-37.25 0,-18 61.75,-18 61.75,-37.25"/>
<text text-anchor="middle" x="30.88" y="-23.75" font-family="Helvetica,sans-Serif" font-size="10.00">stack::pop</text>
</a>
</g>
</g>
<!-- Node2 -->
<g id="node2" class="node">
<title>Node2</title>
<g id="a_node2"><a target="_blank" xlink:href="http://en.cppreference.com/w/cpp/io/manip/endl.html#" xlink:title=" ">
<polygon fill="white" stroke="#666666" points="178.25,-56.25 124.75,-56.25 124.75,-37 178.25,-37 178.25,-56.25"/>
<text text-anchor="middle" x="151.5" y="-42.75" font-family="Helvetica,sans-Serif" font-size="10.00">std::endl</text>
</a>
</g>
</g>
<!-- Node1&#45;&gt;Node2 -->
<g id="edge1" class="edge">
<title>Node1&#45;&gt;Node2</title>
<path fill="none" stroke="#63b8ff" d="M62.12,-32.47C77.88,-34.99 97.29,-38.1 113.9,-40.76"/>
<polygon fill="#63b8ff" stroke="#63b8ff" points="112.92,-44.31 123.34,-42.44 114.02,-37.4 112.92,-44.31"/>
</g>
<!-- Node3 -->
<g id="node3" class="node">
<title>Node3</title>
<g id="a_node3"><a xlink:href="../../d1/dc2/classstack.html#a066e4505155b009913c47b2648b1067a" target="_top" xlink:title=" ">
<polygon fill="white" stroke="#666666" points="205.25,-19.25 97.75,-19.25 97.75,0 205.25,0 205.25,-19.25"/>
<text text-anchor="middle" x="151.5" y="-5.75" font-family="Helvetica,sans-Serif" font-size="10.00">stack::isEmptyStack</text>
</a>
</g>
</g>
<!-- Node1&#45;&gt;Node3 -->
<g id="edge2" class="edge">
<title>Node1&#45;&gt;Node3</title>
<path fill="none" stroke="#63b8ff" d="M62.12,-23.04C69.65,-21.89 78.01,-20.63 86.49,-19.34"/>
<polygon fill="#63b8ff" stroke="#63b8ff" points="86.9,-22.66 96.26,-17.7 85.85,-15.74 86.9,-22.66"/>
</g>
</g>
</svg>
