<?xml version="1.0" encoding="UTF-8" standalone="no"?>
<!DOCTYPE svg PUBLIC "-//W3C//DTD SVG 1.1//EN"
 "http://www.w3.org/Graphics/SVG/1.1/DTD/svg11.dtd">
<!-- Generated by graphviz version 8.0.5 (20230430.1635)
 -->
<!-- Title: Queue Pages: 1 -->
<svg width="128pt" height="165pt"
 viewBox="0.00 0.00 127.50 164.50" xmlns="http://www.w3.org/2000/svg" xmlns:xlink="http://www.w3.org/1999/xlink">
<g id="graph0" class="graph" transform="scale(1 1) rotate(0) translate(4 160.5)">
<title>Queue</title>
<!-- Node1 -->
<g id="node1" class="node">
<title>Node1</title>
<g id="a_node1"><a xlink:title=" ">
<polygon fill="#999999" stroke="#666666" points="59.5,-19.25 15,-19.25 15,0 59.5,0 59.5,-19.25"/>
<text text-anchor="middle" x="37.25" y="-5.75" font-family="Helvetica,sans-Serif" font-size="10.00">Queue</text>
</a>
</g>
</g>
<!-- Node2 -->
<g id="node2" class="node">
<title>Node2</title>
<g id="a_node2"><a xlink:href="../../d5/da1/structnode.html" target="_top" xlink:title=" ">
<polygon fill="white" stroke="#666666" points="74.5,-132.38 0,-132.38 0,-113.12 74.5,-113.12 74.5,-132.38"/>
<text text-anchor="middle" x="37.25" y="-118.88" font-family="Helvetica,sans-Serif" font-size="10.00">node&lt; Kind &gt;</text>
</a>
</g>
</g>
<!-- Node2&#45;&gt;Node1 -->
<g id="edge1" class="edge">
<title>Node2&#45;&gt;Node1</title>
<path fill="none" stroke="#9a32cd" stroke-dasharray="5,2" d="M37.25,-101.85C37.25,-77.49 37.25,-37.29 37.25,-19.53"/>
<polygon fill="#9a32cd" stroke="#9a32cd" points="33.75,-101.66 37.25,-111.66 40.75,-101.66 33.75,-101.66"/>
<text text-anchor="middle" x="48.5" y="-61.5" font-family="Helvetica,sans-Serif" font-size="10.00"> front</text>
<text text-anchor="middle" x="48.5" y="-50.25" font-family="Helvetica,sans-Serif" font-size="10.00">rear</text>
<text text-anchor="middle" x="48.5" y="-39" font-family="Helvetica,sans-Serif" font-size="10.00">t</text>
</g>
<!-- Node2&#45;&gt;Node2 -->
<g id="edge2" class="edge">
<title>Node2&#45;&gt;Node2</title>
<path fill="none" stroke="#9a32cd" stroke-dasharray="5,2" d="M65.31,-135.19C79.64,-137.04 92.5,-132.89 92.5,-122.75 92.5,-110.15 72.64,-106.8 54.79,-112.71"/>
<polygon fill="#9a32cd" stroke="#9a32cd" points="66.32,-131.6 55.79,-132.79 64.76,-138.43 66.32,-131.6"/>
<text text-anchor="middle" x="106" y="-147" font-family="Helvetica,sans-Serif" font-size="10.00"> left</text>
<text text-anchor="middle" x="106" y="-135.75" font-family="Helvetica,sans-Serif" font-size="10.00">link</text>
<text text-anchor="middle" x="106" y="-124.5" font-family="Helvetica,sans-Serif" font-size="10.00">next</text>
<text text-anchor="middle" x="106" y="-113.25" font-family="Helvetica,sans-Serif" font-size="10.00">parent</text>
<text text-anchor="middle" x="106" y="-102" font-family="Helvetica,sans-Serif" font-size="10.00">prev</text>
<text text-anchor="middle" x="106" y="-90.75" font-family="Helvetica,sans-Serif" font-size="10.00">right</text>
</g>
</g>
</svg>
