<?xml version="1.0" encoding="UTF-8" standalone="no"?>
<!DOCTYPE svg PUBLIC "-//W3C//DTD SVG 1.1//EN"
 "http://www.w3.org/Graphics/SVG/1.1/DTD/svg11.dtd">
<!-- Generated by graphviz version 8.0.5 (20230430.1635)
 -->
<!-- Title: getBalance Pages: 1 -->
<svg width="241pt" height="45pt"
 viewBox="0.00 0.00 241.25 45.25" xmlns="http://www.w3.org/2000/svg" xmlns:xlink="http://www.w3.org/1999/xlink">
<g id="graph0" class="graph" transform="scale(1 1) rotate(0) translate(4 41.25)">
<title>getBalance</title>
<!-- Node1 -->
<g id="node1" class="node">
<title>Node1</title>
<g id="a_node1"><a xlink:title=" ">
<polygon fill="#999999" stroke="#666666" points="64.75,-19.25 0,-19.25 0,0 64.75,0 64.75,-19.25"/>
<text text-anchor="middle" x="32.38" y="-5.75" font-family="Helvetica,sans-Serif" font-size="10.00">getBalance</text>
</a>
</g>
</g>
<!-- Node2 -->
<g id="node2" class="node">
<title>Node2</title>
<g id="a_node2"><a xlink:href="../../d8/dee/avltree_8cpp.html#ae4a66d8b0c2b0d626aea45977e358c83" target="_top" xlink:title=" ">
<polygon fill="white" stroke="#666666" points="143,-19.25 100.75,-19.25 100.75,0 143,0 143,-19.25"/>
<text text-anchor="middle" x="121.88" y="-5.75" font-family="Helvetica,sans-Serif" font-size="10.00">height</text>
</a>
</g>
</g>
<!-- Node1&#45;&gt;Node2 -->
<g id="edge1" class="edge">
<title>Node1&#45;&gt;Node2</title>
<path fill="none" stroke="#63b8ff" d="M64.96,-9.62C73.02,-9.62 81.67,-9.62 89.7,-9.62"/>
<polygon fill="#63b8ff" stroke="#63b8ff" points="89.51,-13.13 99.51,-9.62 89.51,-6.13 89.51,-13.13"/>
</g>
<!-- Node2&#45;&gt;Node2 -->
<g id="edge2" class="edge">
<title>Node2&#45;&gt;Node2</title>
<path fill="none" stroke="#63b8ff" d="M108.69,-19.54C102.67,-28.15 107.07,-37.25 121.88,-37.25 130.21,-37.25 135.24,-34.37 136.98,-30.32"/>
<polygon fill="#63b8ff" stroke="#63b8ff" points="140.26,-29.77 135.06,-20.54 133.37,-31 140.26,-29.77"/>
</g>
<!-- Node3 -->
<g id="node3" class="node">
<title>Node3</title>
<g id="a_node3"><a target="_blank" xlink:href="http://en.cppreference.com/w/cpp/algorithm/max.html#" xlink:title=" ">
<polygon fill="white" stroke="#666666" points="233.25,-19.25 179,-19.25 179,0 233.25,0 233.25,-19.25"/>
<text text-anchor="middle" x="206.12" y="-5.75" font-family="Helvetica,sans-Serif" font-size="10.00">std::max</text>
</a>
</g>
</g>
<!-- Node2&#45;&gt;Node3 -->
<g id="edge3" class="edge">
<title>Node2&#45;&gt;Node3</title>
<path fill="none" stroke="#63b8ff" d="M143.21,-9.62C150.62,-9.62 159.25,-9.62 167.67,-9.62"/>
<polygon fill="#63b8ff" stroke="#63b8ff" points="167.51,-13.13 177.51,-9.62 167.51,-6.13 167.51,-13.13"/>
</g>
</g>
</svg>
