<?xml version="1.0" encoding="UTF-8" standalone="no"?>
<!DOCTYPE svg PUBLIC "-//W3C//DTD SVG 1.1//EN"
 "http://www.w3.org/Graphics/SVG/1.1/DTD/svg11.dtd">
<!-- Generated by graphviz version 8.0.5 (20230430.1635)
 -->
<!-- Title: backtracking::minimax Pages: 1 -->
<svg width="300pt" height="121pt"
 viewBox="0.00 0.00 299.75 121.25" xmlns="http://www.w3.org/2000/svg" xmlns:xlink="http://www.w3.org/1999/xlink">
<g id="graph0" class="graph" transform="scale(1 1) rotate(0) translate(4 117.25)">
<title>backtracking::minimax</title>
<!-- Node1 -->
<g id="node1" class="node">
<title>Node1</title>
<g id="a_node1"><a xlink:title="Check which is the maximum/minimum number in the array.">
<polygon fill="#999999" stroke="#666666" points="114.25,-57.25 0,-57.25 0,-38 114.25,-38 114.25,-57.25"/>
<text text-anchor="middle" x="57.12" y="-43.75" font-family="Helvetica,sans-Serif" font-size="10.00">backtracking::minimax</text>
</a>
</g>
</g>
<!-- Node1&#45;&gt;Node1 -->
<g id="edge6" class="edge">
<title>Node1&#45;&gt;Node1</title>
<path fill="none" stroke="#63b8ff" d="M38.53,-57.54C30.05,-66.15 36.25,-75.25 57.12,-75.25 69.19,-75.25 76.36,-72.21 78.61,-67.98"/>
<polygon fill="#63b8ff" stroke="#63b8ff" points="81.76,-67.24 75.72,-58.54 75.02,-69.11 81.76,-67.24"/>
</g>
<!-- Node2 -->
<g id="node2" class="node">
<title>Node2</title>
<g id="a_node2"><a xlink:href="../../d8/dee/avltree_8cpp.html#ae4a66d8b0c2b0d626aea45977e358c83" target="_top" xlink:title=" ">
<polygon fill="white" stroke="#666666" points="197,-95.25 154.75,-95.25 154.75,-76 197,-76 197,-95.25"/>
<text text-anchor="middle" x="175.88" y="-81.75" font-family="Helvetica,sans-Serif" font-size="10.00">height</text>
</a>
</g>
</g>
<!-- Node1&#45;&gt;Node2 -->
<g id="edge1" class="edge">
<title>Node1&#45;&gt;Node2</title>
<path fill="none" stroke="#63b8ff" d="M89.11,-57.71C106.22,-63.28 127.41,-70.18 144.44,-75.72"/>
<polygon fill="#63b8ff" stroke="#63b8ff" points="142.84,-79.2 153.43,-78.97 145.01,-72.55 142.84,-79.2"/>
</g>
<!-- Node3 -->
<g id="node3" class="node">
<title>Node3</title>
<g id="a_node3"><a target="_blank" xlink:href="http://en.cppreference.com/w/cpp/algorithm/max.html#" xlink:title=" ">
<polygon fill="white" stroke="#666666" points="291.75,-76.25 237.5,-76.25 237.5,-57 291.75,-57 291.75,-76.25"/>
<text text-anchor="middle" x="264.62" y="-62.75" font-family="Helvetica,sans-Serif" font-size="10.00">std::max</text>
</a>
</g>
</g>
<!-- Node1&#45;&gt;Node3 -->
<g id="edge4" class="edge">
<title>Node1&#45;&gt;Node3</title>
<path fill="none" stroke="#63b8ff" d="M114.55,-52.84C150.11,-56.13 195.03,-60.28 226.22,-63.17"/>
<polygon fill="#63b8ff" stroke="#63b8ff" points="225.76,-66.73 236.04,-64.17 226.41,-59.76 225.76,-66.73"/>
</g>
<!-- Node4 -->
<g id="node4" class="node">
<title>Node4</title>
<g id="a_node4"><a target="_blank" xlink:href="http://en.cppreference.com/w/cpp/algorithm/min.html#" xlink:title=" ">
<polygon fill="white" stroke="#666666" points="201.5,-19.25 150.25,-19.25 150.25,0 201.5,0 201.5,-19.25"/>
<text text-anchor="middle" x="175.88" y="-5.75" font-family="Helvetica,sans-Serif" font-size="10.00">std::min</text>
</a>
</g>
</g>
<!-- Node1&#45;&gt;Node4 -->
<g id="edge5" class="edge">
<title>Node1&#45;&gt;Node4</title>
<path fill="none" stroke="#63b8ff" d="M89.11,-37.54C104.73,-32.46 123.75,-26.27 139.9,-21.01"/>
<polygon fill="#63b8ff" stroke="#63b8ff" points="140.61,-24.13 149.03,-17.71 138.44,-17.48 140.61,-24.13"/>
</g>
<!-- Node2&#45;&gt;Node2 -->
<g id="edge2" class="edge">
<title>Node2&#45;&gt;Node2</title>
<path fill="none" stroke="#63b8ff" d="M161.98,-95.54C155.64,-104.15 160.27,-113.25 175.88,-113.25 184.65,-113.25 189.95,-110.37 191.79,-106.32"/>
<polygon fill="#63b8ff" stroke="#63b8ff" points="195.05,-105.72 189.77,-96.54 188.17,-107.01 195.05,-105.72"/>
</g>
<!-- Node2&#45;&gt;Node3 -->
<g id="edge3" class="edge">
<title>Node2&#45;&gt;Node3</title>
<path fill="none" stroke="#63b8ff" d="M197.43,-81.12C206.19,-79.2 216.68,-76.91 226.7,-74.71"/>
<polygon fill="#63b8ff" stroke="#63b8ff" points="227.27,-77.95 236.29,-72.39 225.77,-71.11 227.27,-77.95"/>
</g>
</g>
</svg>
