<?xml version="1.0" encoding="UTF-8" standalone="no"?>
<!DOCTYPE svg PUBLIC "-//W3C//DTD SVG 1.1//EN"
 "http://www.w3.org/Graphics/SVG/1.1/DTD/svg11.dtd">
<!-- Generated by graphviz version 8.0.5 (20230430.1635)
 -->
<!-- Title: math/finding_number_of_digits_in_a_number.cpp Pages: 1 -->
<svg width="145pt" height="94pt"
 viewBox="0.00 0.00 144.75 93.75" xmlns="http://www.w3.org/2000/svg" xmlns:xlink="http://www.w3.org/1999/xlink">
<g id="graph0" class="graph" transform="scale(1 1) rotate(0) translate(4 89.75)">
<title>math/finding_number_of_digits_in_a_number.cpp</title>
<!-- Node1 -->
<g id="node1" class="node">
<title>Node1</title>
<g id="a_node1"><a xlink:title="[Program to count digits in an integer](https://www.geeksforgeeks.org/program&#45;count&#45;digits&#45;integer&#45;3&#45;...">
<polygon fill="#999999" stroke="#666666" points="136.75,-85.75 0,-85.75 0,-55.25 136.75,-55.25 136.75,-85.75"/>
<text text-anchor="start" x="8" y="-72.25" font-family="Helvetica,sans-Serif" font-size="10.00">math/finding_number</text>
<text text-anchor="middle" x="68.38" y="-61" font-family="Helvetica,sans-Serif" font-size="10.00">_of_digits_in_a_number.cpp</text>
</a>
</g>
</g>
<!-- Node2 -->
<g id="node2" class="node">
<title>Node2</title>
<g id="a_node2"><a xlink:title=" ">
<polygon fill="#e0e0e0" stroke="#999999" points="58.5,-19.25 10.25,-19.25 10.25,0 58.5,0 58.5,-19.25"/>
<text text-anchor="middle" x="34.38" y="-5.75" font-family="Helvetica,sans-Serif" font-size="10.00">cassert</text>
</a>
</g>
</g>
<!-- Node1&#45;&gt;Node2 -->
<g id="edge1" class="edge">
<title>Node1&#45;&gt;Node2</title>
<path fill="none" stroke="#63b8ff" d="M59.97,-54.95C55.44,-47.1 49.81,-37.35 44.98,-28.99"/>
<polygon fill="#63b8ff" stroke="#63b8ff" points="47.65,-27.61 39.62,-20.7 41.59,-31.11 47.65,-27.61"/>
</g>
<!-- Node3 -->
<g id="node3" class="node">
<title>Node3</title>
<g id="a_node3"><a xlink:title=" ">
<polygon fill="#e0e0e0" stroke="#999999" points="130.12,-19.25 76.62,-19.25 76.62,0 130.12,0 130.12,-19.25"/>
<text text-anchor="middle" x="103.38" y="-5.75" font-family="Helvetica,sans-Serif" font-size="10.00">iostream</text>
</a>
</g>
</g>
<!-- Node1&#45;&gt;Node3 -->
<g id="edge2" class="edge">
<title>Node1&#45;&gt;Node3</title>
<path fill="none" stroke="#63b8ff" d="M77.03,-54.95C81.69,-47.1 87.49,-37.35 92.46,-28.99"/>
<polygon fill="#63b8ff" stroke="#63b8ff" points="95.88,-31.09 97.98,-20.7 89.86,-27.51 95.88,-31.09"/>
</g>
</g>
</svg>
