<?xml version="1.0" encoding="UTF-8" standalone="no"?>
<!DOCTYPE svg PUBLIC "-//W3C//DTD SVG 1.1//EN"
 "http://www.w3.org/Graphics/SVG/1.1/DTD/svg11.dtd">
<!-- Generated by graphviz version 8.0.5 (20230430.1635)
 -->
<!-- Title: math::rect_prism_volume Pages: 1 -->
<svg width="303pt" height="45pt"
 viewBox="0.00 0.00 302.75 45.25" xmlns="http://www.w3.org/2000/svg" xmlns:xlink="http://www.w3.org/1999/xlink">
<g id="graph0" class="graph" transform="scale(1 1) rotate(0) translate(4 41.25)">
<title>math::rect_prism_volume</title>
<!-- Node1 -->
<g id="node1" class="node">
<title>Node1</title>
<g id="a_node1"><a xlink:title="The volume of a rectangular prism.">
<polygon fill="#999999" stroke="#666666" points="126.25,-19.25 0,-19.25 0,0 126.25,0 126.25,-19.25"/>
<text text-anchor="middle" x="63.12" y="-5.75" font-family="Helvetica,sans-Serif" font-size="10.00">math::rect_prism_volume</text>
</a>
</g>
</g>
<!-- Node2 -->
<g id="node2" class="node">
<title>Node2</title>
<g id="a_node2"><a xlink:href="../../d8/dee/avltree_8cpp.html#ae4a66d8b0c2b0d626aea45977e358c83" target="_top" xlink:title=" ">
<polygon fill="white" stroke="#666666" points="204.5,-19.25 162.25,-19.25 162.25,0 204.5,0 204.5,-19.25"/>
<text text-anchor="middle" x="183.38" y="-5.75" font-family="Helvetica,sans-Serif" font-size="10.00">height</text>
</a>
</g>
</g>
<!-- Node1&#45;&gt;Node2 -->
<g id="edge1" class="edge">
<title>Node1&#45;&gt;Node2</title>
<path fill="none" stroke="#63b8ff" d="M126.71,-9.62C135.17,-9.62 143.54,-9.62 151.12,-9.62"/>
<polygon fill="#63b8ff" stroke="#63b8ff" points="150.91,-13.13 160.91,-9.62 150.91,-6.13 150.91,-13.13"/>
</g>
<!-- Node2&#45;&gt;Node2 -->
<g id="edge2" class="edge">
<title>Node2&#45;&gt;Node2</title>
<path fill="none" stroke="#63b8ff" d="M170.19,-19.54C164.17,-28.15 168.57,-37.25 183.38,-37.25 191.71,-37.25 196.74,-34.37 198.48,-30.32"/>
<polygon fill="#63b8ff" stroke="#63b8ff" points="201.76,-29.77 196.56,-20.54 194.87,-31 201.76,-29.77"/>
</g>
<!-- Node3 -->
<g id="node3" class="node">
<title>Node3</title>
<g id="a_node3"><a target="_blank" xlink:href="http://en.cppreference.com/w/cpp/algorithm/max.html#" xlink:title=" ">
<polygon fill="white" stroke="#666666" points="294.75,-19.25 240.5,-19.25 240.5,0 294.75,0 294.75,-19.25"/>
<text text-anchor="middle" x="267.62" y="-5.75" font-family="Helvetica,sans-Serif" font-size="10.00">std::max</text>
</a>
</g>
</g>
<!-- Node2&#45;&gt;Node3 -->
<g id="edge3" class="edge">
<title>Node2&#45;&gt;Node3</title>
<path fill="none" stroke="#63b8ff" d="M204.71,-9.62C212.12,-9.62 220.75,-9.62 229.17,-9.62"/>
<polygon fill="#63b8ff" stroke="#63b8ff" points="229.01,-13.13 239.01,-9.62 229.01,-6.13 229.01,-13.13"/>
</g>
</g>
</svg>
