<?xml version="1.0" encoding="UTF-8" standalone="no"?>
<!DOCTYPE svg PUBLIC "-//W3C//DTD SVG 1.1//EN"
 "http://www.w3.org/Graphics/SVG/1.1/DTD/svg11.dtd">
<!-- Generated by graphviz version 8.0.5 (20230430.1635)
 -->
<!-- Title: math::cone_volume Pages: 1 -->
<svg width="289pt" height="82pt"
 viewBox="0.00 0.00 289.25 82.25" xmlns="http://www.w3.org/2000/svg" xmlns:xlink="http://www.w3.org/1999/xlink">
<g id="graph0" class="graph" transform="scale(1 1) rotate(0) translate(4 78.25)">
<title>math::cone_volume</title>
<!-- Node1 -->
<g id="node1" class="node">
<title>Node1</title>
<g id="a_node1"><a xlink:title="The volume of a cone">
<polygon fill="#999999" stroke="#666666" points="101.5,-37.25 0,-37.25 0,-18 101.5,-18 101.5,-37.25"/>
<text text-anchor="middle" x="50.75" y="-23.75" font-family="Helvetica,sans-Serif" font-size="10.00">math::cone_volume</text>
</a>
</g>
</g>
<!-- Node2 -->
<g id="node2" class="node">
<title>Node2</title>
<g id="a_node2"><a xlink:href="../../d8/dee/avltree_8cpp.html#ae4a66d8b0c2b0d626aea45977e358c83" target="_top" xlink:title=" ">
<polygon fill="white" stroke="#666666" points="185.38,-56.25 143.12,-56.25 143.12,-37 185.38,-37 185.38,-56.25"/>
<text text-anchor="middle" x="164.25" y="-42.75" font-family="Helvetica,sans-Serif" font-size="10.00">height</text>
</a>
</g>
</g>
<!-- Node1&#45;&gt;Node2 -->
<g id="edge1" class="edge">
<title>Node1&#45;&gt;Node2</title>
<path fill="none" stroke="#63b8ff" d="M101.95,-36.18C112.23,-37.93 122.76,-39.72 132.12,-41.32"/>
<polygon fill="#63b8ff" stroke="#63b8ff" points="131.43,-44.92 141.88,-43.15 132.61,-38.02 131.43,-44.92"/>
</g>
<!-- Node4 -->
<g id="node4" class="node">
<title>Node4</title>
<g id="a_node4"><a target="_blank" xlink:href="http://en.cppreference.com/w/cpp/numeric/math/pow.html#" xlink:title=" ">
<polygon fill="white" stroke="#666666" points="191,-19.25 137.5,-19.25 137.5,0 191,0 191,-19.25"/>
<text text-anchor="middle" x="164.25" y="-5.75" font-family="Helvetica,sans-Serif" font-size="10.00">std::pow</text>
</a>
</g>
</g>
<!-- Node1&#45;&gt;Node4 -->
<g id="edge4" class="edge">
<title>Node1&#45;&gt;Node4</title>
<path fill="none" stroke="#63b8ff" d="M101.95,-19.52C110.21,-18.19 118.62,-16.83 126.46,-15.56"/>
<polygon fill="#63b8ff" stroke="#63b8ff" points="126.79,-18.9 136.1,-13.85 125.67,-11.98 126.79,-18.9"/>
</g>
<!-- Node2&#45;&gt;Node2 -->
<g id="edge2" class="edge">
<title>Node2&#45;&gt;Node2</title>
<path fill="none" stroke="#63b8ff" d="M150.18,-56.54C143.76,-65.15 148.45,-74.25 164.25,-74.25 173.14,-74.25 178.51,-71.37 180.37,-67.32"/>
<polygon fill="#63b8ff" stroke="#63b8ff" points="183.62,-66.71 178.32,-57.54 176.75,-68.02 183.62,-66.71"/>
</g>
<!-- Node3 -->
<g id="node3" class="node">
<title>Node3</title>
<g id="a_node3"><a target="_blank" xlink:href="http://en.cppreference.com/w/cpp/algorithm/max.html#" xlink:title=" ">
<polygon fill="white" stroke="#666666" points="281.25,-56.25 227,-56.25 227,-37 281.25,-37 281.25,-56.25"/>
<text text-anchor="middle" x="254.12" y="-42.75" font-family="Helvetica,sans-Serif" font-size="10.00">std::max</text>
</a>
</g>
</g>
<!-- Node2&#45;&gt;Node3 -->
<g id="edge3" class="edge">
<title>Node2&#45;&gt;Node3</title>
<path fill="none" stroke="#63b8ff" d="M185.63,-46.62C194.57,-46.62 205.35,-46.62 215.65,-46.62"/>
<polygon fill="#63b8ff" stroke="#63b8ff" points="215.52,-50.13 225.52,-46.62 215.52,-43.13 215.52,-50.13"/>
</g>
</g>
</svg>
