<?xml version="1.0" encoding="UTF-8" standalone="no"?>
<!DOCTYPE svg PUBLIC "-//W3C//DTD SVG 1.1//EN"
 "http://www.w3.org/Graphics/SVG/1.1/DTD/svg11.dtd">
<!-- Generated by graphviz version 8.0.5 (20230430.1635)
 -->
<!-- Title: math::parallelogram_area Pages: 1 -->
<svg width="302pt" height="45pt"
 viewBox="0.00 0.00 302.00 45.25" xmlns="http://www.w3.org/2000/svg" xmlns:xlink="http://www.w3.org/1999/xlink">
<g id="graph0" class="graph" transform="scale(1 1) rotate(0) translate(4 41.25)">
<title>math::parallelogram_area</title>
<!-- Node1 -->
<g id="node1" class="node">
<title>Node1</title>
<g id="a_node1"><a xlink:title="area of a parallelogram (b * h)">
<polygon fill="#999999" stroke="#666666" points="125.5,-19.25 0,-19.25 0,0 125.5,0 125.5,-19.25"/>
<text text-anchor="middle" x="62.75" y="-5.75" font-family="Helvetica,sans-Serif" font-size="10.00">math::parallelogram_area</text>
</a>
</g>
</g>
<!-- Node2 -->
<g id="node2" class="node">
<title>Node2</title>
<g id="a_node2"><a xlink:href="../../d8/dee/avltree_8cpp.html#ae4a66d8b0c2b0d626aea45977e358c83" target="_top" xlink:title=" ">
<polygon fill="white" stroke="#666666" points="203.75,-19.25 161.5,-19.25 161.5,0 203.75,0 203.75,-19.25"/>
<text text-anchor="middle" x="182.62" y="-5.75" font-family="Helvetica,sans-Serif" font-size="10.00">height</text>
</a>
</g>
</g>
<!-- Node1&#45;&gt;Node2 -->
<g id="edge1" class="edge">
<title>Node1&#45;&gt;Node2</title>
<path fill="none" stroke="#63b8ff" d="M125.79,-9.62C134.27,-9.62 142.65,-9.62 150.25,-9.62"/>
<polygon fill="#63b8ff" stroke="#63b8ff" points="150.08,-13.13 160.08,-9.62 150.08,-6.13 150.08,-13.13"/>
</g>
<!-- Node2&#45;&gt;Node2 -->
<g id="edge2" class="edge">
<title>Node2&#45;&gt;Node2</title>
<path fill="none" stroke="#63b8ff" d="M169.44,-19.54C163.42,-28.15 167.82,-37.25 182.62,-37.25 190.96,-37.25 195.99,-34.37 197.73,-30.32"/>
<polygon fill="#63b8ff" stroke="#63b8ff" points="201.01,-29.77 195.81,-20.54 194.12,-31 201.01,-29.77"/>
</g>
<!-- Node3 -->
<g id="node3" class="node">
<title>Node3</title>
<g id="a_node3"><a target="_blank" xlink:href="http://en.cppreference.com/w/cpp/algorithm/max.html#" xlink:title=" ">
<polygon fill="white" stroke="#666666" points="294,-19.25 239.75,-19.25 239.75,0 294,0 294,-19.25"/>
<text text-anchor="middle" x="266.88" y="-5.75" font-family="Helvetica,sans-Serif" font-size="10.00">std::max</text>
</a>
</g>
</g>
<!-- Node2&#45;&gt;Node3 -->
<g id="edge3" class="edge">
<title>Node2&#45;&gt;Node3</title>
<path fill="none" stroke="#63b8ff" d="M203.96,-9.62C211.37,-9.62 220,-9.62 228.42,-9.62"/>
<polygon fill="#63b8ff" stroke="#63b8ff" points="228.26,-13.13 238.26,-9.62 228.26,-6.13 228.26,-13.13"/>
</g>
</g>
</svg>
