<?xml version="1.0" encoding="UTF-8" standalone="no"?>
<!DOCTYPE svg PUBLIC "-//W3C//DTD SVG 1.1//EN"
 "http://www.w3.org/Graphics/SVG/1.1/DTD/svg11.dtd">
<!-- Generated by graphviz version 8.0.5 (20230430.1635)
 -->
<!-- Title: math::cylinder_surface_area Pages: 1 -->
<svg width="316pt" height="45pt"
 viewBox="0.00 0.00 315.50 45.25" xmlns="http://www.w3.org/2000/svg" xmlns:xlink="http://www.w3.org/1999/xlink">
<g id="graph0" class="graph" transform="scale(1 1) rotate(0) translate(4 41.25)">
<title>math::cylinder_surface_area</title>
<!-- Node1 -->
<g id="node1" class="node">
<title>Node1</title>
<g id="a_node1"><a xlink:title="surface area of a cylinder (2 * pi * r * h + 2 * pi * r^2)">
<polygon fill="#999999" stroke="#666666" points="139,-19.25 0,-19.25 0,0 139,0 139,-19.25"/>
<text text-anchor="middle" x="69.5" y="-5.75" font-family="Helvetica,sans-Serif" font-size="10.00">math::cylinder_surface_area</text>
</a>
</g>
</g>
<!-- Node2 -->
<g id="node2" class="node">
<title>Node2</title>
<g id="a_node2"><a xlink:href="../../d8/dee/avltree_8cpp.html#ae4a66d8b0c2b0d626aea45977e358c83" target="_top" xlink:title=" ">
<polygon fill="white" stroke="#666666" points="217.25,-19.25 175,-19.25 175,0 217.25,0 217.25,-19.25"/>
<text text-anchor="middle" x="196.12" y="-5.75" font-family="Helvetica,sans-Serif" font-size="10.00">height</text>
</a>
</g>
</g>
<!-- Node1&#45;&gt;Node2 -->
<g id="edge1" class="edge">
<title>Node1&#45;&gt;Node2</title>
<path fill="none" stroke="#63b8ff" d="M139.37,-9.62C147.9,-9.62 156.25,-9.62 163.8,-9.62"/>
<polygon fill="#63b8ff" stroke="#63b8ff" points="163.54,-13.13 173.54,-9.62 163.54,-6.13 163.54,-13.13"/>
</g>
<!-- Node2&#45;&gt;Node2 -->
<g id="edge2" class="edge">
<title>Node2&#45;&gt;Node2</title>
<path fill="none" stroke="#63b8ff" d="M182.94,-19.54C176.92,-28.15 181.32,-37.25 196.12,-37.25 204.46,-37.25 209.49,-34.37 211.23,-30.32"/>
<polygon fill="#63b8ff" stroke="#63b8ff" points="214.51,-29.77 209.31,-20.54 207.62,-31 214.51,-29.77"/>
</g>
<!-- Node3 -->
<g id="node3" class="node">
<title>Node3</title>
<g id="a_node3"><a target="_blank" xlink:href="http://en.cppreference.com/w/cpp/algorithm/max.html#" xlink:title=" ">
<polygon fill="white" stroke="#666666" points="307.5,-19.25 253.25,-19.25 253.25,0 307.5,0 307.5,-19.25"/>
<text text-anchor="middle" x="280.38" y="-5.75" font-family="Helvetica,sans-Serif" font-size="10.00">std::max</text>
</a>
</g>
</g>
<!-- Node2&#45;&gt;Node3 -->
<g id="edge3" class="edge">
<title>Node2&#45;&gt;Node3</title>
<path fill="none" stroke="#63b8ff" d="M217.46,-9.62C224.87,-9.62 233.5,-9.62 241.92,-9.62"/>
<polygon fill="#63b8ff" stroke="#63b8ff" points="241.76,-13.13 251.76,-9.62 241.76,-6.13 241.76,-13.13"/>
</g>
</g>
</svg>
