<?xml version="1.0" encoding="UTF-8" standalone="no"?>
<!DOCTYPE svg PUBLIC "-//W3C//DTD SVG 1.1//EN"
 "http://www.w3.org/Graphics/SVG/1.1/DTD/svg11.dtd">
<!-- Generated by graphviz version 8.0.5 (20230430.1635)
 -->
<!-- Title: data_structures/reverse_a_linked_list.cpp Pages: 1 -->
<svg width="249pt" height="94pt"
 viewBox="0.00 0.00 249.12 93.75" xmlns="http://www.w3.org/2000/svg" xmlns:xlink="http://www.w3.org/1999/xlink">
<g id="graph0" class="graph" transform="scale(1 1) rotate(0) translate(4 89.75)">
<title>data_structures/reverse_a_linked_list.cpp</title>
<!-- Node1 -->
<g id="node1" class="node">
<title>Node1</title>
<g id="a_node1"><a xlink:title="Implementation of Reversing a single linked list">
<polygon fill="#999999" stroke="#666666" points="187.5,-85.75 68.75,-85.75 68.75,-55.25 187.5,-55.25 187.5,-85.75"/>
<text text-anchor="start" x="76.75" y="-72.25" font-family="Helvetica,sans-Serif" font-size="10.00">data_structures/reverse</text>
<text text-anchor="middle" x="128.12" y="-61" font-family="Helvetica,sans-Serif" font-size="10.00">_a_linked_list.cpp</text>
</a>
</g>
</g>
<!-- Node2 -->
<g id="node2" class="node">
<title>Node2</title>
<g id="a_node2"><a xlink:title=" ">
<polygon fill="#e0e0e0" stroke="#999999" points="48.25,-19.25 0,-19.25 0,0 48.25,0 48.25,-19.25"/>
<text text-anchor="middle" x="24.12" y="-5.75" font-family="Helvetica,sans-Serif" font-size="10.00">cassert</text>
</a>
</g>
</g>
<!-- Node1&#45;&gt;Node2 -->
<g id="edge1" class="edge">
<title>Node1&#45;&gt;Node2</title>
<path fill="none" stroke="#63b8ff" d="M102.15,-54.8C86.01,-45.66 65.36,-33.97 49.35,-24.91"/>
<polygon fill="#63b8ff" stroke="#63b8ff" points="51.5,-21.53 41.07,-19.65 48.05,-27.63 51.5,-21.53"/>
</g>
<!-- Node3 -->
<g id="node3" class="node">
<title>Node3</title>
<g id="a_node3"><a xlink:title=" ">
<polygon fill="#e0e0e0" stroke="#999999" points="119.88,-19.25 66.38,-19.25 66.38,0 119.88,0 119.88,-19.25"/>
<text text-anchor="middle" x="93.12" y="-5.75" font-family="Helvetica,sans-Serif" font-size="10.00">iostream</text>
</a>
</g>
</g>
<!-- Node1&#45;&gt;Node3 -->
<g id="edge2" class="edge">
<title>Node1&#45;&gt;Node3</title>
<path fill="none" stroke="#63b8ff" d="M119.47,-54.95C114.81,-47.1 109.01,-37.35 104.04,-28.99"/>
<polygon fill="#63b8ff" stroke="#63b8ff" points="106.64,-27.51 98.52,-20.7 100.62,-31.09 106.64,-27.51"/>
</g>
<!-- Node4 -->
<g id="node4" class="node">
<title>Node4</title>
<g id="a_node4"><a xlink:title=" ">
<polygon fill="#e0e0e0" stroke="#999999" points="188.75,-19.25 137.5,-19.25 137.5,0 188.75,0 188.75,-19.25"/>
<text text-anchor="middle" x="163.12" y="-5.75" font-family="Helvetica,sans-Serif" font-size="10.00">memory</text>
</a>
</g>
</g>
<!-- Node1&#45;&gt;Node4 -->
<g id="edge3" class="edge">
<title>Node1&#45;&gt;Node4</title>
<path fill="none" stroke="#63b8ff" d="M136.78,-54.95C141.44,-47.1 147.24,-37.35 152.21,-28.99"/>
<polygon fill="#63b8ff" stroke="#63b8ff" points="155.63,-31.09 157.73,-20.7 149.61,-27.51 155.63,-31.09"/>
</g>
<!-- Node5 -->
<g id="node5" class="node">
<title>Node5</title>
<g id="a_node5"><a xlink:title=" ">
<polygon fill="#e0e0e0" stroke="#999999" points="241.12,-19.25 207.12,-19.25 207.12,0 241.12,0 241.12,-19.25"/>
<text text-anchor="middle" x="224.12" y="-5.75" font-family="Helvetica,sans-Serif" font-size="10.00">new</text>
</a>
</g>
</g>
<!-- Node1&#45;&gt;Node5 -->
<g id="edge4" class="edge">
<title>Node1&#45;&gt;Node5</title>
<path fill="none" stroke="#63b8ff" d="M151.86,-54.95C166.61,-45.9 185.52,-34.3 200.3,-25.24"/>
<polygon fill="#63b8ff" stroke="#63b8ff" points="201.63,-27.91 208.33,-19.7 197.97,-21.95 201.63,-27.91"/>
</g>
</g>
</svg>
