<?xml version="1.0" encoding="UTF-8" standalone="no"?>
<!DOCTYPE svg PUBLIC "-//W3C//DTD SVG 1.1//EN"
 "http://www.w3.org/Graphics/SVG/1.1/DTD/svg11.dtd">
<!-- Generated by graphviz version 8.0.5 (20230430.1635)
 -->
<!-- Title: data_structures/stack.h Pages: 1 -->
<svg width="129pt" height="83pt"
 viewBox="0.00 0.00 129.12 82.50" xmlns="http://www.w3.org/2000/svg" xmlns:xlink="http://www.w3.org/1999/xlink">
<g id="graph0" class="graph" transform="scale(1 1) rotate(0) translate(4 78.5)">
<title>data_structures/stack.h</title>
<!-- Node1 -->
<g id="node1" class="node">
<title>Node1</title>
<g id="a_node1"><a xlink:title="This class specifies the basic operation on a stack as a linked list.">
<polygon fill="#999999" stroke="#666666" points="118.75,-74.5 0,-74.5 0,-55.25 118.75,-55.25 118.75,-74.5"/>
<text text-anchor="middle" x="59.38" y="-61" font-family="Helvetica,sans-Serif" font-size="10.00">data_structures/stack.h</text>
</a>
</g>
</g>
<!-- Node2 -->
<g id="node2" class="node">
<title>Node2</title>
<g id="a_node2"><a xlink:title=" ">
<polygon fill="#e0e0e0" stroke="#999999" points="49.5,-19.25 1.25,-19.25 1.25,0 49.5,0 49.5,-19.25"/>
<text text-anchor="middle" x="25.38" y="-5.75" font-family="Helvetica,sans-Serif" font-size="10.00">cassert</text>
</a>
</g>
</g>
<!-- Node1&#45;&gt;Node2 -->
<g id="edge1" class="edge">
<title>Node1&#45;&gt;Node2</title>
<path fill="none" stroke="#63b8ff" d="M53.76,-55.08C49.21,-47.96 42.65,-37.68 36.98,-28.8"/>
<polygon fill="#63b8ff" stroke="#63b8ff" points="39.44,-27.15 31.11,-20.61 33.54,-30.92 39.44,-27.15"/>
</g>
<!-- Node3 -->
<g id="node3" class="node">
<title>Node3</title>
<g id="a_node3"><a xlink:title=" ">
<polygon fill="#e0e0e0" stroke="#999999" points="121.12,-19.25 67.62,-19.25 67.62,0 121.12,0 121.12,-19.25"/>
<text text-anchor="middle" x="94.38" y="-5.75" font-family="Helvetica,sans-Serif" font-size="10.00">iostream</text>
</a>
</g>
</g>
<!-- Node1&#45;&gt;Node3 -->
<g id="edge2" class="edge">
<title>Node1&#45;&gt;Node3</title>
<path fill="none" stroke="#63b8ff" d="M65.15,-55.08C69.84,-47.96 76.59,-37.68 82.43,-28.8"/>
<polygon fill="#63b8ff" stroke="#63b8ff" points="85.9,-30.89 88.47,-20.61 80.05,-27.04 85.9,-30.89"/>
</g>
</g>
</svg>
