<?xml version="1.0" encoding="UTF-8" standalone="no"?>
<!DOCTYPE svg PUBLIC "-//W3C//DTD SVG 1.1//EN"
 "http://www.w3.org/Graphics/SVG/1.1/DTD/svg11.dtd">
<!-- Generated by graphviz version 8.0.5 (20230430.1635)
 -->
<!-- Title: sorting/quick_sort.cpp Pages: 1 -->
<svg width="125pt" height="83pt"
 viewBox="0.00 0.00 124.75 82.50" xmlns="http://www.w3.org/2000/svg" xmlns:xlink="http://www.w3.org/1999/xlink">
<g id="graph0" class="graph" transform="scale(1 1) rotate(0) translate(4 78.5)">
<title>sorting/quick_sort.cpp</title>
<!-- Node1 -->
<g id="node1" class="node">
<title>Node1</title>
<g id="a_node1"><a xlink:title="Quick sort algorithm.">
<polygon fill="#999999" stroke="#666666" points="112,-74.5 0,-74.5 0,-55.25 112,-55.25 112,-74.5"/>
<text text-anchor="middle" x="56" y="-61" font-family="Helvetica,sans-Serif" font-size="10.00">sorting/quick_sort.cpp</text>
</a>
</g>
</g>
<!-- Node2 -->
<g id="node2" class="node">
<title>Node2</title>
<g id="a_node2"><a xlink:title=" ">
<polygon fill="#e0e0e0" stroke="#999999" points="45.25,-19.25 0.75,-19.25 0.75,0 45.25,0 45.25,-19.25"/>
<text text-anchor="middle" x="23" y="-5.75" font-family="Helvetica,sans-Serif" font-size="10.00">cstdlib</text>
</a>
</g>
</g>
<!-- Node1&#45;&gt;Node2 -->
<g id="edge1" class="edge">
<title>Node1&#45;&gt;Node2</title>
<path fill="none" stroke="#63b8ff" d="M50.55,-55.08C46.13,-47.96 39.76,-37.68 34.26,-28.8"/>
<polygon fill="#63b8ff" stroke="#63b8ff" points="36.81,-27.27 28.57,-20.61 30.86,-30.95 36.81,-27.27"/>
</g>
<!-- Node3 -->
<g id="node3" class="node">
<title>Node3</title>
<g id="a_node3"><a xlink:title=" ">
<polygon fill="#e0e0e0" stroke="#999999" points="116.75,-19.25 63.25,-19.25 63.25,0 116.75,0 116.75,-19.25"/>
<text text-anchor="middle" x="90" y="-5.75" font-family="Helvetica,sans-Serif" font-size="10.00">iostream</text>
</a>
</g>
</g>
<!-- Node1&#45;&gt;Node3 -->
<g id="edge2" class="edge">
<title>Node1&#45;&gt;Node3</title>
<path fill="none" stroke="#63b8ff" d="M61.61,-55.08C66.16,-47.96 72.73,-37.68 78.4,-28.8"/>
<polygon fill="#63b8ff" stroke="#63b8ff" points="81.83,-30.92 84.26,-20.61 75.93,-27.15 81.83,-30.92"/>
</g>
</g>
</svg>
