<?xml version="1.0" encoding="UTF-8" standalone="no"?>
<!DOCTYPE svg PUBLIC "-//W3C//DTD SVG 1.1//EN"
 "http://www.w3.org/Graphics/SVG/1.1/DTD/svg11.dtd">
<!-- Generated by graphviz version 8.0.5 (20230430.1635)
 -->
<!-- Title: hamilton_cycle Pages: 1 -->
<svg width="331pt" height="82pt"
 viewBox="0.00 0.00 331.25 82.25" xmlns="http://www.w3.org/2000/svg" xmlns:xlink="http://www.w3.org/1999/xlink">
<g id="graph0" class="graph" transform="scale(1 1) rotate(0) translate(4 78.25)">
<title>hamilton_cycle</title>
<!-- Node1 -->
<g id="node1" class="node">
<title>Node1</title>
<g id="a_node1"><a xlink:title=" ">
<polygon fill="#999999" stroke="#666666" points="81.25,-37.25 0,-37.25 0,-18 81.25,-18 81.25,-37.25"/>
<text text-anchor="middle" x="40.62" y="-23.75" font-family="Helvetica,sans-Serif" font-size="10.00">hamilton_cycle</text>
</a>
</g>
</g>
<!-- Node2 -->
<g id="node2" class="node">
<title>Node2</title>
<g id="a_node2"><a xlink:href="../../d8/dee/avltree_8cpp.html#ae4a66d8b0c2b0d626aea45977e358c83" target="_top" xlink:title=" ">
<polygon fill="white" stroke="#666666" points="196.25,-56.25 154,-56.25 154,-37 196.25,-37 196.25,-56.25"/>
<text text-anchor="middle" x="175.12" y="-42.75" font-family="Helvetica,sans-Serif" font-size="10.00">height</text>
</a>
</g>
</g>
<!-- Node1&#45;&gt;Node2 -->
<g id="edge1" class="edge">
<title>Node1&#45;&gt;Node2</title>
<path fill="none" stroke="#63b8ff" d="M81.74,-33.38C101.42,-36.2 124.76,-39.55 143.06,-42.17"/>
<polygon fill="#63b8ff" stroke="#63b8ff" points="142.33,-45.74 152.73,-43.7 143.32,-38.82 142.33,-45.74"/>
</g>
<!-- Node4 -->
<g id="node4" class="node">
<title>Node4</title>
<g id="a_node4"><a target="_blank" xlink:href="http://en.cppreference.com/w/cpp/container/vector/push_back.html#" xlink:title=" ">
<polygon fill="white" stroke="#666666" points="233,-19.25 117.25,-19.25 117.25,0 233,0 233,-19.25"/>
<text text-anchor="middle" x="175.12" y="-5.75" font-family="Helvetica,sans-Serif" font-size="10.00">std::vector::push_back</text>
</a>
</g>
</g>
<!-- Node1&#45;&gt;Node4 -->
<g id="edge4" class="edge">
<title>Node1&#45;&gt;Node4</title>
<path fill="none" stroke="#63b8ff" d="M81.74,-22.18C89.56,-21.11 97.96,-19.97 106.39,-18.83"/>
<polygon fill="#63b8ff" stroke="#63b8ff" points="106.6,-22.19 116.04,-17.38 105.66,-15.26 106.6,-22.19"/>
</g>
<!-- Node2&#45;&gt;Node2 -->
<g id="edge2" class="edge">
<title>Node2&#45;&gt;Node2</title>
<path fill="none" stroke="#63b8ff" d="M156.18,-56.54C147.54,-65.15 153.86,-74.25 175.12,-74.25 187.42,-74.25 194.72,-71.21 197.02,-66.98"/>
<polygon fill="#63b8ff" stroke="#63b8ff" points="200.16,-66.21 194.07,-57.54 193.42,-68.11 200.16,-66.21"/>
</g>
<!-- Node3 -->
<g id="node3" class="node">
<title>Node3</title>
<g id="a_node3"><a target="_blank" xlink:href="http://en.cppreference.com/w/cpp/algorithm/max.html#" xlink:title=" ">
<polygon fill="white" stroke="#666666" points="323.25,-56.25 269,-56.25 269,-37 323.25,-37 323.25,-56.25"/>
<text text-anchor="middle" x="296.12" y="-42.75" font-family="Helvetica,sans-Serif" font-size="10.00">std::max</text>
</a>
</g>
</g>
<!-- Node2&#45;&gt;Node3 -->
<g id="edge3" class="edge">
<title>Node2&#45;&gt;Node3</title>
<path fill="none" stroke="#63b8ff" d="M196.58,-46.62C213.4,-46.62 237.68,-46.62 257.92,-46.62"/>
<polygon fill="#63b8ff" stroke="#63b8ff" points="257.69,-50.13 267.69,-46.62 257.68,-43.13 257.69,-50.13"/>
</g>
</g>
</svg>
