<?xml version="1.0" encoding="UTF-8" standalone="no"?>
<!DOCTYPE svg PUBLIC "-//W3C//DTD SVG 1.1//EN"
 "http://www.w3.org/Graphics/SVG/1.1/DTD/svg11.dtd">
<!-- Generated by graphviz version 8.0.5 (20230430.1635)
 -->
<!-- Title: test1 Pages: 1 -->
<svg width="405pt" height="82pt"
 viewBox="0.00 0.00 405.00 82.25" xmlns="http://www.w3.org/2000/svg" xmlns:xlink="http://www.w3.org/1999/xlink">
<g id="graph0" class="graph" transform="scale(1 1) rotate(0) translate(4 78.25)">
<title>test1</title>
<!-- Node1 -->
<g id="node1" class="node">
<title>Node1</title>
<g id="a_node1"><a xlink:title=" ">
<polygon fill="#999999" stroke="#666666" points="37.75,-37.25 0,-37.25 0,-18 37.75,-18 37.75,-37.25"/>
<text text-anchor="middle" x="18.88" y="-23.75" font-family="Helvetica,sans-Serif" font-size="10.00">test1</text>
</a>
</g>
</g>
<!-- Node2 -->
<g id="node2" class="node">
<title>Node2</title>
<g id="a_node2"><a xlink:href="../../dd/d0c/hamiltons__cycle_8cpp.html#abcf824e347eecfeeb69ea0280f34f3e4" target="_top" xlink:title=" ">
<polygon fill="white" stroke="#666666" points="155,-37.25 73.75,-37.25 73.75,-18 155,-18 155,-37.25"/>
<text text-anchor="middle" x="114.38" y="-23.75" font-family="Helvetica,sans-Serif" font-size="10.00">hamilton_cycle</text>
</a>
</g>
</g>
<!-- Node1&#45;&gt;Node2 -->
<g id="edge1" class="edge">
<title>Node1&#45;&gt;Node2</title>
<path fill="none" stroke="#63b8ff" d="M37.9,-27.62C45.07,-27.62 53.71,-27.62 62.54,-27.62"/>
<polygon fill="#63b8ff" stroke="#63b8ff" points="62.33,-31.13 72.33,-27.62 62.33,-24.13 62.33,-31.13"/>
</g>
<!-- Node3 -->
<g id="node3" class="node">
<title>Node3</title>
<g id="a_node3"><a xlink:href="../../d8/dee/avltree_8cpp.html#ae4a66d8b0c2b0d626aea45977e358c83" target="_top" xlink:title=" ">
<polygon fill="white" stroke="#666666" points="270,-56.25 227.75,-56.25 227.75,-37 270,-37 270,-56.25"/>
<text text-anchor="middle" x="248.88" y="-42.75" font-family="Helvetica,sans-Serif" font-size="10.00">height</text>
</a>
</g>
</g>
<!-- Node2&#45;&gt;Node3 -->
<g id="edge2" class="edge">
<title>Node2&#45;&gt;Node3</title>
<path fill="none" stroke="#63b8ff" d="M155.49,-33.38C175.17,-36.2 198.51,-39.55 216.81,-42.17"/>
<polygon fill="#63b8ff" stroke="#63b8ff" points="216.08,-45.74 226.48,-43.7 217.07,-38.82 216.08,-45.74"/>
</g>
<!-- Node5 -->
<g id="node5" class="node">
<title>Node5</title>
<g id="a_node5"><a target="_blank" xlink:href="http://en.cppreference.com/w/cpp/container/vector/push_back.html#" xlink:title=" ">
<polygon fill="white" stroke="#666666" points="306.75,-19.25 191,-19.25 191,0 306.75,0 306.75,-19.25"/>
<text text-anchor="middle" x="248.88" y="-5.75" font-family="Helvetica,sans-Serif" font-size="10.00">std::vector::push_back</text>
</a>
</g>
</g>
<!-- Node2&#45;&gt;Node5 -->
<g id="edge5" class="edge">
<title>Node2&#45;&gt;Node5</title>
<path fill="none" stroke="#63b8ff" d="M155.49,-22.18C163.31,-21.11 171.71,-19.97 180.14,-18.83"/>
<polygon fill="#63b8ff" stroke="#63b8ff" points="180.35,-22.19 189.79,-17.38 179.41,-15.26 180.35,-22.19"/>
</g>
<!-- Node3&#45;&gt;Node3 -->
<g id="edge3" class="edge">
<title>Node3&#45;&gt;Node3</title>
<path fill="none" stroke="#63b8ff" d="M229.93,-56.54C221.29,-65.15 227.61,-74.25 248.88,-74.25 261.17,-74.25 268.47,-71.21 270.77,-66.98"/>
<polygon fill="#63b8ff" stroke="#63b8ff" points="273.91,-66.21 267.82,-57.54 267.17,-68.11 273.91,-66.21"/>
</g>
<!-- Node4 -->
<g id="node4" class="node">
<title>Node4</title>
<g id="a_node4"><a target="_blank" xlink:href="http://en.cppreference.com/w/cpp/algorithm/max.html#" xlink:title=" ">
<polygon fill="white" stroke="#666666" points="397,-56.25 342.75,-56.25 342.75,-37 397,-37 397,-56.25"/>
<text text-anchor="middle" x="369.88" y="-42.75" font-family="Helvetica,sans-Serif" font-size="10.00">std::max</text>
</a>
</g>
</g>
<!-- Node3&#45;&gt;Node4 -->
<g id="edge4" class="edge">
<title>Node3&#45;&gt;Node4</title>
<path fill="none" stroke="#63b8ff" d="M270.33,-46.62C287.15,-46.62 311.43,-46.62 331.67,-46.62"/>
<polygon fill="#63b8ff" stroke="#63b8ff" points="331.44,-50.13 341.44,-46.62 331.43,-43.13 331.44,-50.13"/>
</g>
</g>
</svg>
